<svg xmlns="http://www.w3.org/2000/svg" viewBox="0 0 24 24"><defs><linearGradient id="a" x1="12" y1=".13" x2="12" y2="24.3" gradientUnits="userSpaceOnUse"><stop offset="0" stop-color="#c7725f"/><stop offset="1" stop-color="#853b33"/></linearGradient><linearGradient id="b" x1="12.41" y1="5.58" x2="12.41" y2="21.77" gradientUnits="userSpaceOnUse"><stop offset="0" stop-color="#fefda4"/><stop offset=".09" stop-color="#f9f59d"/><stop offset=".23" stop-color="#ebdf8b"/><stop offset=".4" stop-color="#d5ba6d"/><stop offset=".59" stop-color="#b68943"/><stop offset=".6" stop-color="#b48540"/></linearGradient></defs><path fill="url(#a)" d="M0 .05h24v24H0z"/><path d="M12.41 7.36A2.59 2.59 0 0 1 15 9.92v2.57a2.63 2.63 0 0 1-5.25 0V9.92a2.6 2.6 0 0 1 2.66-2.56z" fill="#723b36" fill-rule="evenodd"/><path d="M5.41 5.49v5.25h4.37v.87a2.63 2.63 0 1 0 5.25 0v-.87h4.38V5.49zm7 11.06a1.5 1.5 0 1 0 1.5 1.5 1.5 1.5 0 0 0-1.5-1.5z" fill="url(#b)"/><path fill="#fff" d="M7.41 7.05h10v2h-10z"/></svg>