<svg id="Layer_1" xmlns="http://www.w3.org/2000/svg" viewBox="0 0 24 24"><style></style><linearGradient id="SVGID_1_" gradientUnits="userSpaceOnUse" x1="12" y1="24" x2="12"><stop offset="0" stop-color="#853b33"/><stop offset="1" stop-color="#c7725f"/></linearGradient><path fill="url(#SVGID_1_)" d="M0 0h24v24H0z"/><path d="M12.07 11.007c-.024 0-.046-.007-.07-.007s-.046.007-.07.007H9V14a3 3 0 1 0 6 0v-2.993h-2.93z" opacity=".2"/><linearGradient id="SVGID_2_" gradientUnits="userSpaceOnUse" x1="12" y1="15.005" x2="12" y2="5"><stop offset="0" stop-color="#b57541"/><stop offset="1" stop-color="#fff4a1"/></linearGradient><path d="M19.504 5H4.496A.496.496 0 0 0 4 5.496v5.007c0 .275.222.497.496.497H8.5a.5.5 0 0 1 .5.5v.505a3 3 0 1 0 6 0V11.5a.5.5 0 0 1 .5-.5h4.004a.496.496 0 0 0 .496-.496V5.496A.496.496 0 0 0 19.504 5z" fill="url(#SVGID_2_)"/><g><path d="M6.208 7h11.584c.115 0 .208.093.208.208v1.584a.208.208 0 0 1-.208.208H6.208A.208.208 0 0 1 6 8.792V7.208C6 7.093 6.093 7 6.208 7z" fill="#fff"/></g><g><linearGradient id="SVGID_3_" gradientUnits="userSpaceOnUse" x1="12" y1="20.175" x2="12" y2="15.645"><stop offset="0" stop-color="#b57541"/><stop offset="1" stop-color="#fff4a1"/></linearGradient><circle cx="12" cy="19" r="1.175" fill="url(#SVGID_3_)"/></g></svg>