<svg xmlns="http://www.w3.org/2000/svg" xmlns:xlink="http://www.w3.org/1999/xlink" viewBox="0 0 24 24"><defs><style>.cls-1{fill:url(#linear-gradient);}.cls-2{fill:#723b36;fill-rule:evenodd;}.cls-3{fill:url(#linear-gradient-2);}.cls-4{fill:#fff;}</style><linearGradient id="linear-gradient" x1="12" y1="0.13" x2="12" y2="24.3" gradientUnits="userSpaceOnUse"><stop offset="0" stop-color="#c7725f"/><stop offset="1" stop-color="#853b33"/></linearGradient><linearGradient id="linear-gradient-2" x1="12.41" y1="5.58" x2="12.41" y2="21.77" gradientUnits="userSpaceOnUse"><stop offset="0" stop-color="#fefda4"/><stop offset="0.09" stop-color="#f9f59d"/><stop offset="0.23" stop-color="#ebdf8b"/><stop offset="0.4" stop-color="#d5ba6d"/><stop offset="0.59" stop-color="#b68943"/><stop offset="0.6" stop-color="#b48540"/></linearGradient></defs><title>Items</title><g id="Items"><rect class="cls-1" y="0.05" width="24" height="24"/><path class="cls-2" d="M12.41,7.36A2.59,2.59,0,0,1,15,9.92v2.57a2.63,2.63,0,0,1-5.25,0V9.92A2.6,2.6,0,0,1,12.41,7.36Z"/><path class="cls-3" d="M5.41,5.49v5.25H9.78v.87a2.63,2.63,0,1,0,5.25,0v-.87h4.38V5.49Zm7,11.06a1.5,1.5,0,1,0,1.5,1.5A1.5,1.5,0,0,0,12.41,16.55Z"/><rect class="cls-4" x="7.41" y="7.05" width="10" height="2"/></g></svg>